<svg xmlns="http://www.w3.org/2000/svg" width="512" height="512" viewBox="0 0 512 512" role="img" aria-label="Webhook">
  <!-- Lucide webhook, ISC License. -->
  <g transform="translate(76 76) scale(15)" fill="none" stroke-width="2.2" stroke-linecap="round" stroke-linejoin="round">
    <path stroke="#2563EB" d="M18 16.98h-5.99c-1.1 0-1.95.94-2.48 1.9A4 4 0 0 1 2 17c.01-.7.2-1.4.57-2"/>
    <path stroke="#16A34A" d="m6 17 3.13-5.78c.53-.97.1-2.18-.5-3.1a4 4 0 1 1 6.89-4.06"/>
    <path stroke="#EF4444" d="m12 6 3.13 5.73C15.66 12.7 16.9 13 18 13a4 4 0 0 1 0 8"/>
  </g>
</svg>
